<svg width="993" height="300" aria-label="A chart." style="overflow: hidden;"><defs id="defs"><clipPath id="_ABSTRACT_RENDERER_ID_15"><rect x="0" y="0" width="973" height="280"></rect></clipPath></defs><rect x="0" y="0" width="993" height="300" stroke="none" stroke-width="0" fill="#ffffff"></rect><g><rect x="0" y="0" width="973" height="280" stroke="none" stroke-width="0" fill-opacity="0" fill="#ffffff"></rect><g clip-path="url(https://analytics.google.com/analytics/web/#_ABSTRACT_RENDERER_ID_15)"><g><rect x="0" y="0" width="1" height="280" stroke="none" stroke-width="0" fill="#ffffff"></rect><rect x="117" y="0" width="1" height="280" stroke="none" stroke-width="0" fill="#ffffff"></rect><rect x="235" y="0" width="1" height="280" stroke="none" stroke-width="0" fill="#ffffff"></rect><rect x="354" y="0" width="1" height="280" stroke="none" stroke-width="0" fill="#ffffff"></rect><rect x="471" y="0" width="1" height="280" stroke="none" stroke-width="0" fill="#ffffff"></rect><rect x="588" y="0" width="1" height="280" stroke="none" stroke-width="0" fill="#ffffff"></rect><rect x="706" y="0" width="1" height="280" stroke="none" stroke-width="0" fill="#ffffff"></rect><rect x="824" y="0" width="1" height="280" stroke="none" stroke-width="0" fill="#ffffff"></rect><rect x="940" y="0" width="1" height="280" stroke="none" stroke-width="0" fill="#ffffff"></rect><rect x="0" y="279" width="973" height="1" stroke="none" stroke-width="0" fill="#efefef"></rect><rect x="0" y="140" width="973" height="1" stroke="none" stroke-width="0" fill="#efefef"></rect><rect x="0" y="0" width="973" height="1" stroke="none" stroke-width="0" fill="#efefef"></rect></g><g><g><path d="M0.5,279.5L0.5,279.5L1.7857142857142856,279.5L3.071428571428571,279.5L4.357142857142858,279.5L5.642857142857142,279.5L6.928571428571428,279.5L8.214285714285715,279.5L9.5,279.5L10.785714285714285,279.5L12.071428571428571,279.5L13.357142857142856,279.5L14.642857142857142,279.5L15.928571428571429,279.5L17.214285714285715,279.5L18.5,279.5L19.785714285714285,279.5L21.07142857142857,279.5L22.357142857142858,279.5L23.642857142857142,279.5L24.928571428571427,279.5L26.21428571428571,279.5L27.5,279.5L28.785714285714285,279.5L30.07142857142857,279.5L31.357142857142858,279.5L32.64285714285714,279.5L33.92857142857143,279.5L35.214285714285715,279.5L36.5,279.5L37.785714285714285,279.5L39.07142857142857,279.5L40.357142857142854,279.5L41.64285714285714,279.5L42.92857142857143,279.5L44.214285714285715,279.5L45.5,279.5L46.785714285714285,279.5L48.07142857142857,279.5L49.357142857142854,279.5L50.64285714285714,279.5L51.92857142857142,279.5L53.214285714285715,279.5L54.5,279.5L55.785714285714285,279.5L57.07142857142857,279.5L58.357142857142854,279.5L59.64285714285714,279.5L60.92857142857142,279.5L62.214285714285715,279.5L63.5,279.5L64.78571428571428,279.5L66.07142857142857,279.5L67.35714285714286,279.5L68.64285714285714,279.5L69.92857142857143,279.5L71.21428571428571,279.5L72.5,279.5L73.78571428571428,279.5L75.07142857142857,279.5L76.35714285714286,279.5L77.64285714285714,279.5L78.92857142857143,279.5L80.21428571428571,279.5L81.5,279.5L82.78571428571428,279.5L84.07142857142857,279.5L85.35714285714286,279.5L86.64285714285714,279.5L87.92857142857143,279.5L89.21428571428571,279.5L90.5,279.5L91.78571428571428,279.5L93.07142857142857,230.675L94.35714285714285,133.025L95.64285714285714,241.835L96.92857142857143,165.11L98.21428571428571,272.525L99.5,226.49L100.78571428571428,199.985L102.07142857142857,225.095L103.35714285714285,272.525L104.64285714285714,266.945L105.92857142857143,222.305L107.21428571428571,250.20499999999998L108.5,216.725L109.78571428571428,209.75L111.07142857142857,215.32999999999998L112.35714285714285,271.13L113.64285714285714,199.985L114.92857142857143,186.035L116.21428571428571,146.975L117.5,232.07L118.78571428571428,197.195L120.07142857142857,190.22L121.35714285714285,276.71L122.64285714285714,218.12L123.92857142857143,229.28L125.21428571428571,222.305L126.5,209.75L127.78571428571428,243.23L129.07142857142856,262.76L130.35714285714286,275.315L131.64285714285714,173.48000000000002L132.92857142857142,198.59L134.21428571428572,244.625L135.5,254.39L136.78571428571428,198.59L138.07142857142856,272.525L139.35714285714286,257.18L140.64285714285714,188.825L141.92857142857142,259.97L143.21428571428572,257.18L144.5,236.255L145.78571428571428,239.04500000000002L147.07142857142856,193.01L148.35714285714286,271.13L149.64285714285714,271.13L150.92857142857142,271.13L152.21428571428572,220.91L153.5,216.725L154.78571428571428,257.18L156.07142857142856,218.12L157.35714285714286,258.575L158.64285714285714,244.625L159.92857142857142,247.415L161.21428571428572,258.575L162.5,261.365L163.78571428571428,255.785L165.07142857142856,225.095L166.35714285714286,264.155L167.64285714285714,222.305L168.92857142857142,264.155L170.21428571428572,201.38L171.5,241.835L172.78571428571428,252.995L174.07142857142856,264.155L175.35714285714286,271.13L176.64285714285714,273.92L177.92857142857142,272.525L179.2142857142857,272.525L180.5,269.735L181.78571428571428,257.18L183.07142857142856,271.13L184.35714285714286,271.13L185.64285714285714,268.34L186.92857142857142,255.785L188.2142857142857,252.995L189.5,248.81L190.78571428571428,261.365L192.07142857142856,265.55L193.35714285714286,273.92L194.64285714285714,272.525L195.92857142857142,252.995L197.2142857142857,258.575L198.5,247.415L199.78571428571428,252.995L201.07142857142856,252.995L202.35714285714286,261.365L203.64285714285714,271.13L204.92857142857142,255.785L206.2142857142857,258.575L207.5,257.18L208.78571428571428,268.34L210.07142857142856,248.81L211.35714285714286,258.575L212.64285714285714,255.785L213.92857142857142,239.04500000000002L215.2142857142857,255.785L216.5,244.625L217.78571428571428,254.39L219.07142857142856,223.7L220.35714285714286,262.76L221.64285714285714,258.575L222.92857142857142,250.20499999999998L224.2142857142857,252.995L225.5,252.995L226.78571428571428,247.415L228.07142857142856,251.6L229.35714285714286,271.13L230.64285714285714,268.34L231.92857142857142,246.01999999999998L233.2142857142857,250.20499999999998L234.5,223.7L235.78571428571428,240.44L237.07142857142856,248.81L238.35714285714286,269.735L239.64285714285714,268.34L240.92857142857142,236.255L242.2142857142857,246.01999999999998L243.5,225.095L244.78571428571428,232.07L246.07142857142856,248.81L247.35714285714286,264.155L248.64285714285714,265.55L249.92857142857142,243.23L251.2142857142857,250.20499999999998L252.5,246.01999999999998L253.78571428571428,262.76L255.07142857142856,252.995L256.3571428571429,269.735L257.6428571428571,271.13L258.92857142857144,258.575L260.2142857142857,239.04500000000002L261.5,247.415L262.7857142857143,240.44L264.07142857142856,259.97L265.35714285714283,257.18L266.6428571428571,259.97L267.98214285714283,257.18L269.2678571428571,262.76L270.55357142857144,255.785L271.8392857142857,248.81L273.125,266.945L274.4107142857143,252.995L275.69642857142856,271.13L276.98214285714283,258.575L278.2678571428571,246.01999999999998L279.55357142857144,264.155L280.8392857142857,259.97L282.125,266.945L283.4107142857143,247.415L284.69642857142856,250.20499999999998L285.98214285714283,252.995L287.2678571428571,272.525L288.55357142857144,262.76L289.8392857142857,261.365L291.125,264.155L292.4107142857143,265.55L293.69642857142856,272.525L294.98214285714283,265.55L296.2678571428571,229.28L297.55357142857144,158.135L298.8392857142857,226.49L300.125,148.37L301.4107142857143,213.935L302.69642857142856,268.34L303.98214285714283,220.91L305.2678571428571,244.625L306.55357142857144,216.725L307.8392857142857,220.91L309.125,227.885L310.4107142857143,259.97L311.69642857142856,236.255L312.98214285714283,252.995L314.2678571428571,255.785L315.55357142857144,255.785L316.8392857142857,258.575L318.125,255.785L319.4107142857143,265.55L320.69642857142856,268.34L321.98214285714283,252.995L323.2678571428571,251.6L324.55357142857144,232.07L325.8392857142857,254.39L327.125,261.365L328.4107142857143,272.525L329.69642857142856,273.92L330.98214285714283,257.18L332.2678571428571,264.155L333.55357142857144,251.6L334.8392857142857,257.18L336.125,265.55L337.4107142857143,273.92L338.69642857142856,268.34L339.98214285714283,265.55L341.2678571428571,244.625L342.55357142857144,273.92L343.8392857142857,166.505L345.125,268.34L346.4107142857143,202.775L347.69642857142856,271.13L348.98214285714283,254.39L350.2678571428571,257.18L351.55357142857144,255.785L352.8392857142857,272.525L354.125,276.71L355.4107142857143,246.01999999999998L356.69642857142856,243.23L357.98214285714283,265.55L359.2678571428571,239.04500000000002L360.5535714285714,216.725L361.8392857142857,257.18L363.125,264.155L364.4107142857143,276.71L365.69642857142856,275.315L366.98214285714283,244.625L368.2678571428571,264.155L369.5535714285714,259.97L370.8392857142857,265.55L372.125,259.97L373.4107142857143,268.34L374.69642857142856,273.92L375.98214285714283,259.97L377.2678571428571,264.155L378.5535714285714,252.995L379.8392857142857,264.155L381.125,255.785L382.4107142857143,275.315L383.69642857142856,275.315L384.98214285714283,259.97L386.2678571428571,262.76L387.5535714285714,257.18L388.8392857142857,236.255L390.125,261.365L391.4107142857143,268.34L392.69642857142856,268.34L393.98214285714283,259.97L395.2678571428571,252.995L396.5535714285714,258.575L397.8392857142857,254.39L399.125,248.81L400.4107142857143,268.34L401.69642857142856,265.55L402.98214285714283,251.6L404.2678571428571,252.995L405.5535714285714,261.365L406.8392857142857,251.6L408.125,258.575L409.4107142857143,273.92L410.69642857142856,268.34L411.98214285714283,265.55L413.2678571428571,269.735L414.5535714285714,264.155L415.8392857142857,265.55L417.125,262.76L418.4107142857143,275.315L419.69642857142856,275.315L420.98214285714283,264.155L422.2678571428571,254.39L423.5535714285714,248.81L424.8392857142857,250.20499999999998L426.125,257.18L427.4107142857143,273.92L428.69642857142856,279.5L429.98214285714283,279.5L431.2678571428571,279.5L432.5535714285714,269.735L433.8392857142857,257.18L435.125,264.155L436.4107142857143,279.5L437.69642857142856,279.5L438.98214285714283,220.91L440.2678571428571,205.565L441.5535714285714,229.28L442.8392857142857,232.07L444.125,255.785L445.4107142857143,261.365L446.69642857142856,268.34L447.98214285714283,244.625L449.2678571428571,241.835L450.5535714285714,247.415L451.8392857142857,254.39L453.125,255.785L454.4107142857143,273.92L455.69642857142856,272.525L456.98214285714283,261.365L458.2678571428571,259.97L459.5535714285714,254.39L460.8392857142857,255.785L462.125,257.18L463.4107142857143,273.92L464.69642857142856,272.525L465.9285714285714,266.945L467.2142857142857,257.18L468.5,258.575L469.7857142857143,255.785L471.07142857142856,254.39L472.35714285714283,272.525L473.6428571428571,278.105L474.9285714285714,233.465L476.2142857142857,251.6L477.5,251.6L478.7857142857143,252.995L480.07142857142856,259.97L481.35714285714283,257.18L482.6428571428571,265.55L483.9285714285714,209.75L485.2142857142857,248.81L486.5,259.97L487.7857142857143,247.415L489.07142857142856,259.97L490.35714285714283,271.13L491.6428571428571,230.675L492.9285714285714,247.415L494.2142857142857,244.625L495.5,251.6L496.7857142857143,246.01999999999998L498.07142857142856,258.575L499.35714285714283,252.995L500.6428571428571,258.575L501.9285714285714,252.995L503.2142857142857,258.575L504.5,257.18L505.7857142857143,250.20499999999998L507.07142857142856,264.155L508.35714285714283,273.92L509.6428571428571,271.13L510.9285714285714,259.97L512.2142857142858,250.20499999999998L513.5,259.97L514.7857142857142,254.39L516.0714285714286,261.365L517.3571428571429,269.735L518.6428571428571,266.945L519.9285714285714,259.97L521.2142857142857,255.785L522.5,258.575L523.7857142857142,250.20499999999998L525.0714285714286,262.76L526.3571428571429,265.55L527.6428571428571,250.20499999999998L528.9285714285714,258.575L530.2142857142857,257.18L531.5,258.575L532.7857142857142,255.785L534.0714285714286,257.18L535.3571428571429,273.92L536.6428571428571,262.76L537.9285714285714,240.44L539.2142857142857,244.625L540.5,250.20499999999998L541.7857142857142,244.625L543.0714285714286,246.01999999999998L544.3571428571429,269.735L545.6428571428571,258.575L546.9285714285714,252.995L548.2142857142857,258.575L549.5,255.785L550.7857142857142,259.97L552.0714285714286,266.945L553.3571428571429,229.28L554.6428571428571,275.315L555.9285714285714,250.20499999999998L557.2142857142857,259.97L558.5,255.785L559.7857142857142,246.01999999999998L561.0714285714286,257.18L562.3571428571429,269.735L563.6428571428571,261.365L564.9285714285714,248.81L566.2142857142857,240.44L567.5,250.20499999999998L568.7857142857142,247.415L570.0714285714286,257.18L571.3571428571429,268.34L572.6428571428571,268.34L573.9285714285714,255.785L575.2142857142857,259.97L576.5,252.995L577.7857142857142,259.97L579.0714285714286,265.55L580.3571428571429,275.315L581.6428571428571,272.525L582.9285714285714,255.785L584.2142857142857,250.20499999999998L585.5,252.995L586.7857142857142,215.32999999999998L588.0714285714286,269.735L589.3571428571429,273.92L590.6428571428571,227.885L591.9285714285714,220.91L593.2142857142857,233.465L594.5,250.20499999999998L595.7857142857142,36.77000000000001L597.0714285714286,257.18L598.3571428571429,265.55L599.6428571428571,271.13L600.9285714285714,250.20499999999998L602.2142857142857,254.39L603.5,261.365L604.7857142857142,257.18L606.0714285714286,259.97L607.3571428571429,269.735L608.6428571428571,266.945L609.9285714285714,259.97L611.2142857142857,233.465L612.5,261.365L613.7857142857142,257.18L615.0714285714286,265.55L616.3571428571429,271.13L617.6428571428571,272.525L618.9285714285714,220.91L620.2142857142857,257.18L621.5,239.04500000000002L622.7857142857142,257.18L624.0714285714286,244.625L625.3571428571429,268.34L626.6428571428571,273.92L627.9285714285714,257.18L629.2142857142857,251.6L630.5,243.23L631.7857142857142,246.01999999999998L633.0714285714286,188.825L634.3571428571429,272.525L635.6428571428571,261.365L636.9285714285714,251.6L638.2142857142857,237.65L639.5,273.92L640.7857142857142,240.44L642.0714285714286,251.6L643.3571428571429,273.92L644.6428571428571,268.34L645.9285714285714,262.76L647.2142857142857,246.01999999999998L648.5,264.155L649.7857142857142,233.465L651.0714285714286,259.97L652.3571428571429,272.525L653.6428571428571,269.735L654.9285714285714,254.39L656.2142857142857,246.01999999999998L657.5,262.76L658.7857142857142,232.07L660.0714285714286,265.55L661.3571428571429,276.71L662.6428571428571,271.13L663.9285714285714,232.07L665.2142857142857,184.64L666.5,234.86L667.7857142857142,252.995L669.0714285714286,257.18L670.3571428571429,273.92L671.6428571428571,269.735L672.9285714285714,227.885L674.2142857142857,243.23L675.5,259.97L676.7857142857142,247.415L678.0714285714286,262.76L679.3571428571429,269.735L680.6428571428571,272.525L681.9285714285714,262.76L683.2142857142857,250.20499999999998L684.5,234.86L685.7857142857142,254.39L687.0714285714286,254.39L688.3571428571429,272.525L689.6428571428571,278.105L690.9285714285714,259.97L692.2142857142857,252.995L693.5,255.785L694.7857142857142,250.20499999999998L696.0714285714286,254.39L697.3571428571429,266.945L698.6428571428571,271.13L699.9285714285714,251.6L701.2142857142857,258.575L702.5,255.785L703.7857142857142,243.23L705.0714285714286,251.6L706.3571428571428,273.92L707.6428571428571,275.315L708.9285714285714,262.76L710.2142857142857,259.97L711.5,261.365L712.7857142857142,251.6L714.0714285714286,252.995L715.3571428571428,278.105L716.6428571428571,275.315L717.9285714285714,261.365L719.2142857142857,258.575L720.5,252.995L721.7857142857142,259.97L723.0714285714286,261.365L724.3571428571428,266.945L725.6428571428571,269.735L726.9285714285714,272.525L728.2142857142857,262.76L729.5,247.415L730.7857142857142,262.76L732.0714285714286,258.575L733.3571428571428,278.105L734.6428571428571,271.13L735.9285714285714,251.6L737.2142857142857,248.81L738.5,248.81L739.7857142857142,258.575L741.0714285714286,258.575L742.3571428571428,275.315L743.6428571428571,266.945L744.9821428571428,244.625L746.2678571428571,244.625L747.5535714285714,250.20499999999998L748.8392857142857,248.81L750.125,255.785L751.4107142857142,261.365L752.6964285714286,266.945L753.9821428571428,252.995L755.2678571428571,264.155L756.5535714285714,259.97L757.8392857142857,254.39L759.125,255.785L760.4107142857142,259.97L761.6964285714286,271.13L762.9821428571428,237.65L764.2678571428571,251.6L765.5535714285714,265.55L766.8392857142857,254.39L768.125,255.785L769.4107142857142,266.945L770.6964285714286,269.735L771.9821428571428,243.23L773.2678571428571,230.675L774.5535714285714,247.415L775.8392857142857,252.995L777.125,261.365L778.4107142857142,258.575L779.6964285714286,271.13L780.9821428571428,225.095L782.2678571428571,236.255L783.5535714285714,233.465L784.8392857142857,246.01999999999998L786.125,264.155L787.4107142857142,268.34L788.6964285714286,269.735L789.9821428571428,261.365L791.2678571428571,252.995L792.5535714285714,257.18L793.8392857142857,254.39L795.125,259.97L796.4107142857142,268.34L797.6964285714286,275.315L798.9821428571428,269.735L800.2678571428571,259.97L801.5535714285714,251.6L802.8392857142857,247.415L804.125,271.13L805.4107142857142,271.13L806.6964285714286,250.20499999999998L807.9821428571428,259.97L809.2678571428571,268.34L810.5535714285714,259.97L811.8392857142857,262.76L813.125,268.34L814.4107142857142,276.71L815.6964285714286,276.71L816.9821428571428,266.945L818.2678571428571,272.525L819.5535714285714,272.525L820.8392857142857,275.315L822.125,271.13L823.4107142857142,278.105L824.6964285714286,279.5L825.9821428571428,275.315L827.2678571428571,269.735L828.5535714285714,273.92L829.8392857142857,259.97L831.125,268.34L832.4107142857142,272.525L833.6964285714286,271.13L834.9821428571428,259.97L836.2678571428571,266.945L837.5535714285714,269.735L838.8392857142857,265.55L840.125,255.785L841.4107142857142,269.735L842.6964285714286,273.92L843.9821428571428,259.97L845.2678571428571,265.55L846.5535714285714,261.365L847.8392857142857,259.97L849.125,269.735L850.4107142857142,276.71L851.6964285714286,271.13L852.9821428571428,264.155L854.2678571428571,259.97L855.5535714285714,265.55L856.8392857142857,268.34L858.125,269.735L859.4107142857142,272.525L860.6964285714286,271.13L861.9821428571428,259.97L863.2678571428571,262.76L864.5535714285714,257.18L865.8392857142857,262.76L867.125,259.97L868.4107142857142,275.315L869.6964285714286,272.525L870.9821428571428,259.97L872.2678571428571,258.575L873.5535714285714,268.34L874.8392857142857,262.76L876.125,266.945L877.4107142857142,276.71L878.6964285714286,272.525L879.9821428571428,252.995L881.2678571428571,257.18L882.5535714285714,234.86L883.8392857142857,261.365L885.125,257.18L886.4107142857142,269.735L887.6964285714286,275.315L888.9821428571428,262.76L890.2678571428571,252.995L891.5535714285714,243.23L892.8392857142857,241.835L894.125,248.81L895.4107142857142,275.315L896.6964285714286,268.34L897.9821428571428,261.365L899.2678571428571,259.97L900.5535714285714,250.20499999999998L901.8392857142857,244.625L903.125,250.20499999999998L904.4107142857142,269.735L905.6964285714286,273.92L906.9821428571428,243.23L908.2678571428571,248.81L909.5535714285714,241.835L910.8392857142857,244.625L912.125,246.01999999999998L913.4107142857142,254.39L914.6964285714286,264.155L915.9821428571428,241.835L917.2678571428571,262.76L918.5535714285714,244.625L919.8392857142857,241.835L921.125,244.625L922.4107142857142,262.76L923.6964285714286,268.34L924.9821428571428,243.23L926.2678571428571,262.76L927.5535714285714,251.6L928.8392857142857,198.59L930.125,236.255L931.4107142857142,266.945L932.6964285714286,271.13L933.9285714285714,240.44L935.2142857142857,252.995L936.5,236.255L937.7857142857142,247.415L939.0714285714286,244.625L940.3571428571428,268.34L941.6428571428571,273.92L942.9285714285714,246.01999999999998L944.2142857142857,258.575L945.5,258.575L946.7857142857142,259.97L948.0714285714286,259.97L949.3571428571428,276.71L950.6428571428571,272.525L951.9285714285714,247.415L953.2142857142857,257.18L954.5,254.39L955.7857142857142,244.625L957.0714285714286,268.34L958.3571428571428,272.525L959.6428571428571,273.92L960.9285714285714,264.155L962.2142857142857,246.01999999999998L963.5,246.01999999999998L964.7857142857142,250.20499999999998L966.0714285714286,261.365L967.3571428571428,272.525L968.6428571428571,67.46000000000001L969.9285714285714,255.785L971.2142857142857,250.20499999999998L972.5,240.44L972.5,279.5L972.5,279.5Z" stroke="none" stroke-width="0" fill-opacity="0" fill="#046b97"></path></g><g></g><g></g><g></g></g><g><rect x="0" y="279" width="973" height="1" stroke="none" stroke-width="0" fill="#333333"></rect></g><g><path d="M0.5,279.5L1.7857142857142856,279.5L3.071428571428571,279.5L4.357142857142858,279.5L5.642857142857142,279.5L6.928571428571428,279.5L8.214285714285715,279.5L9.5,279.5L10.785714285714285,279.5L12.071428571428571,279.5L13.357142857142856,279.5L14.642857142857142,279.5L15.928571428571429,279.5L17.214285714285715,279.5L18.5,279.5L19.785714285714285,279.5L21.07142857142857,279.5L22.357142857142858,279.5L23.642857142857142,279.5L24.928571428571427,279.5L26.21428571428571,279.5L27.5,279.5L28.785714285714285,279.5L30.07142857142857,279.5L31.357142857142858,279.5L32.64285714285714,279.5L33.92857142857143,279.5L35.214285714285715,279.5L36.5,279.5L37.785714285714285,279.5L39.07142857142857,279.5L40.357142857142854,279.5L41.64285714285714,279.5L42.92857142857143,279.5L44.214285714285715,279.5L45.5,279.5L46.785714285714285,279.5L48.07142857142857,279.5L49.357142857142854,279.5L50.64285714285714,279.5L51.92857142857142,279.5L53.214285714285715,279.5L54.5,279.5L55.785714285714285,279.5L57.07142857142857,279.5L58.357142857142854,279.5L59.64285714285714,279.5L60.92857142857142,279.5L62.214285714285715,279.5L63.5,279.5L64.78571428571428,279.5L66.07142857142857,279.5L67.35714285714286,279.5L68.64285714285714,279.5L69.92857142857143,279.5L71.21428571428571,279.5L72.5,279.5L73.78571428571428,279.5L75.07142857142857,279.5L76.35714285714286,279.5L77.64285714285714,279.5L78.92857142857143,279.5L80.21428571428571,279.5L81.5,279.5L82.78571428571428,279.5L84.07142857142857,279.5L85.35714285714286,279.5L86.64285714285714,279.5L87.92857142857143,279.5L89.21428571428571,279.5L90.5,279.5L91.78571428571428,279.5L93.07142857142857,230.675L94.35714285714285,133.025L95.64285714285714,241.835L96.92857142857143,165.11L98.21428571428571,272.525L99.5,226.49L100.78571428571428,199.985L102.07142857142857,225.095L103.35714285714285,272.525L104.64285714285714,266.945L105.92857142857143,222.305L107.21428571428571,250.20499999999998L108.5,216.725L109.78571428571428,209.75L111.07142857142857,215.32999999999998L112.35714285714285,271.13L113.64285714285714,199.985L114.92857142857143,186.035L116.21428571428571,146.975L117.5,232.07L118.78571428571428,197.195L120.07142857142857,190.22L121.35714285714285,276.71L122.64285714285714,218.12L123.92857142857143,229.28L125.21428571428571,222.305L126.5,209.75L127.78571428571428,243.23L129.07142857142856,262.76L130.35714285714286,275.315L131.64285714285714,173.48000000000002L132.92857142857142,198.59L134.21428571428572,244.625L135.5,254.39L136.78571428571428,198.59L138.07142857142856,272.525L139.35714285714286,257.18L140.64285714285714,188.825L141.92857142857142,259.97L143.21428571428572,257.18L144.5,236.255L145.78571428571428,239.04500000000002L147.07142857142856,193.01L148.35714285714286,271.13L149.64285714285714,271.13L150.92857142857142,271.13L152.21428571428572,220.91L153.5,216.725L154.78571428571428,257.18L156.07142857142856,218.12L157.35714285714286,258.575L158.64285714285714,244.625L159.92857142857142,247.415L161.21428571428572,258.575L162.5,261.365L163.78571428571428,255.785L165.07142857142856,225.095L166.35714285714286,264.155L167.64285714285714,222.305L168.92857142857142,264.155L170.21428571428572,201.38L171.5,241.835L172.78571428571428,252.995L174.07142857142856,264.155L175.35714285714286,271.13L176.64285714285714,273.92L177.92857142857142,272.525L179.2142857142857,272.525L180.5,269.735L181.78571428571428,257.18L183.07142857142856,271.13L184.35714285714286,271.13L185.64285714285714,268.34L186.92857142857142,255.785L188.2142857142857,252.995L189.5,248.81L190.78571428571428,261.365L192.07142857142856,265.55L193.35714285714286,273.92L194.64285714285714,272.525L195.92857142857142,252.995L197.2142857142857,258.575L198.5,247.415L199.78571428571428,252.995L201.07142857142856,252.995L202.35714285714286,261.365L203.64285714285714,271.13L204.92857142857142,255.785L206.2142857142857,258.575L207.5,257.18L208.78571428571428,268.34L210.07142857142856,248.81L211.35714285714286,258.575L212.64285714285714,255.785L213.92857142857142,239.04500000000002L215.2142857142857,255.785L216.5,244.625L217.78571428571428,254.39L219.07142857142856,223.7L220.35714285714286,262.76L221.64285714285714,258.575L222.92857142857142,250.20499999999998L224.2142857142857,252.995L225.5,252.995L226.78571428571428,247.415L228.07142857142856,251.6L229.35714285714286,271.13L230.64285714285714,268.34L231.92857142857142,246.01999999999998L233.2142857142857,250.20499999999998L234.5,223.7L235.78571428571428,240.44L237.07142857142856,248.81L238.35714285714286,269.735L239.64285714285714,268.34L240.92857142857142,236.255L242.2142857142857,246.01999999999998L243.5,225.095L244.78571428571428,232.07L246.07142857142856,248.81L247.35714285714286,264.155L248.64285714285714,265.55L249.92857142857142,243.23L251.2142857142857,250.20499999999998L252.5,246.01999999999998L253.78571428571428,262.76L255.07142857142856,252.995L256.3571428571429,269.735L257.6428571428571,271.13L258.92857142857144,258.575L260.2142857142857,239.04500000000002L261.5,247.415L262.7857142857143,240.44L264.07142857142856,259.97L265.35714285714283,257.18L266.6428571428571,259.97L267.98214285714283,257.18L269.2678571428571,262.76L270.55357142857144,255.785L271.8392857142857,248.81L273.125,266.945L274.4107142857143,252.995L275.69642857142856,271.13L276.98214285714283,258.575L278.2678571428571,246.01999999999998L279.55357142857144,264.155L280.8392857142857,259.97L282.125,266.945L283.4107142857143,247.415L284.69642857142856,250.20499999999998L285.98214285714283,252.995L287.2678571428571,272.525L288.55357142857144,262.76L289.8392857142857,261.365L291.125,264.155L292.4107142857143,265.55L293.69642857142856,272.525L294.98214285714283,265.55L296.2678571428571,229.28L297.55357142857144,158.135L298.8392857142857,226.49L300.125,148.37L301.4107142857143,213.935L302.69642857142856,268.34L303.98214285714283,220.91L305.2678571428571,244.625L306.55357142857144,216.725L307.8392857142857,220.91L309.125,227.885L310.4107142857143,259.97L311.69642857142856,236.255L312.98214285714283,252.995L314.2678571428571,255.785L315.55357142857144,255.785L316.8392857142857,258.575L318.125,255.785L319.4107142857143,265.55L320.69642857142856,268.34L321.98214285714283,252.995L323.2678571428571,251.6L324.55357142857144,232.07L325.8392857142857,254.39L327.125,261.365L328.4107142857143,272.525L329.69642857142856,273.92L330.98214285714283,257.18L332.2678571428571,264.155L333.55357142857144,251.6L334.8392857142857,257.18L336.125,265.55L337.4107142857143,273.92L338.69642857142856,268.34L339.98214285714283,265.55L341.2678571428571,244.625L342.55357142857144,273.92L343.8392857142857,166.505L345.125,268.34L346.4107142857143,202.775L347.69642857142856,271.13L348.98214285714283,254.39L350.2678571428571,257.18L351.55357142857144,255.785L352.8392857142857,272.525L354.125,276.71L355.4107142857143,246.01999999999998L356.69642857142856,243.23L357.98214285714283,265.55L359.2678571428571,239.04500000000002L360.5535714285714,216.725L361.8392857142857,257.18L363.125,264.155L364.4107142857143,276.71L365.69642857142856,275.315L366.98214285714283,244.625L368.2678571428571,264.155L369.5535714285714,259.97L370.8392857142857,265.55L372.125,259.97L373.4107142857143,268.34L374.69642857142856,273.92L375.98214285714283,259.97L377.2678571428571,264.155L378.5535714285714,252.995L379.8392857142857,264.155L381.125,255.785L382.4107142857143,275.315L383.69642857142856,275.315L384.98214285714283,259.97L386.2678571428571,262.76L387.5535714285714,257.18L388.8392857142857,236.255L390.125,261.365L391.4107142857143,268.34L392.69642857142856,268.34L393.98214285714283,259.97L395.2678571428571,252.995L396.5535714285714,258.575L397.8392857142857,254.39L399.125,248.81L400.4107142857143,268.34L401.69642857142856,265.55L402.98214285714283,251.6L404.2678571428571,252.995L405.5535714285714,261.365L406.8392857142857,251.6L408.125,258.575L409.4107142857143,273.92L410.69642857142856,268.34L411.98214285714283,265.55L413.2678571428571,269.735L414.5535714285714,264.155L415.8392857142857,265.55L417.125,262.76L418.4107142857143,275.315L419.69642857142856,275.315L420.98214285714283,264.155L422.2678571428571,254.39L423.5535714285714,248.81L424.8392857142857,250.20499999999998L426.125,257.18L427.4107142857143,273.92L428.69642857142856,279.5L429.98214285714283,279.5L431.2678571428571,279.5L432.5535714285714,269.735L433.8392857142857,257.18L435.125,264.155L436.4107142857143,279.5L437.69642857142856,279.5L438.98214285714283,220.91L440.2678571428571,205.565L441.5535714285714,229.28L442.8392857142857,232.07L444.125,255.785L445.4107142857143,261.365L446.69642857142856,268.34L447.98214285714283,244.625L449.2678571428571,241.835L450.5535714285714,247.415L451.8392857142857,254.39L453.125,255.785L454.4107142857143,273.92L455.69642857142856,272.525L456.98214285714283,261.365L458.2678571428571,259.97L459.5535714285714,254.39L460.8392857142857,255.785L462.125,257.18L463.4107142857143,273.92L464.69642857142856,272.525L465.9285714285714,266.945L467.2142857142857,257.18L468.5,258.575L469.7857142857143,255.785L471.07142857142856,254.39L472.35714285714283,272.525L473.6428571428571,278.105L474.9285714285714,233.465L476.2142857142857,251.6L477.5,251.6L478.7857142857143,252.995L480.07142857142856,259.97L481.35714285714283,257.18L482.6428571428571,265.55L483.9285714285714,209.75L485.2142857142857,248.81L486.5,259.97L487.7857142857143,247.415L489.07142857142856,259.97L490.35714285714283,271.13L491.6428571428571,230.675L492.9285714285714,247.415L494.2142857142857,244.625L495.5,251.6L496.7857142857143,246.01999999999998L498.07142857142856,258.575L499.35714285714283,252.995L500.6428571428571,258.575L501.9285714285714,252.995L503.2142857142857,258.575L504.5,257.18L505.7857142857143,250.20499999999998L507.07142857142856,264.155L508.35714285714283,273.92L509.6428571428571,271.13L510.9285714285714,259.97L512.2142857142858,250.20499999999998L513.5,259.97L514.7857142857142,254.39L516.0714285714286,261.365L517.3571428571429,269.735L518.6428571428571,266.945L519.9285714285714,259.97L521.2142857142857,255.785L522.5,258.575L523.7857142857142,250.20499999999998L525.0714285714286,262.76L526.3571428571429,265.55L527.6428571428571,250.20499999999998L528.9285714285714,258.575L530.2142857142857,257.18L531.5,258.575L532.7857142857142,255.785L534.0714285714286,257.18L535.3571428571429,273.92L536.6428571428571,262.76L537.9285714285714,240.44L539.2142857142857,244.625L540.5,250.20499999999998L541.7857142857142,244.625L543.0714285714286,246.01999999999998L544.3571428571429,269.735L545.6428571428571,258.575L546.9285714285714,252.995L548.2142857142857,258.575L549.5,255.785L550.7857142857142,259.97L552.0714285714286,266.945L553.3571428571429,229.28L554.6428571428571,275.315L555.9285714285714,250.20499999999998L557.2142857142857,259.97L558.5,255.785L559.7857142857142,246.01999999999998L561.0714285714286,257.18L562.3571428571429,269.735L563.6428571428571,261.365L564.9285714285714,248.81L566.2142857142857,240.44L567.5,250.20499999999998L568.7857142857142,247.415L570.0714285714286,257.18L571.3571428571429,268.34L572.6428571428571,268.34L573.9285714285714,255.785L575.2142857142857,259.97L576.5,252.995L577.7857142857142,259.97L579.0714285714286,265.55L580.3571428571429,275.315L581.6428571428571,272.525L582.9285714285714,255.785L584.2142857142857,250.20499999999998L585.5,252.995L586.7857142857142,215.32999999999998L588.0714285714286,269.735L589.3571428571429,273.92L590.6428571428571,227.885L591.9285714285714,220.91L593.2142857142857,233.465L594.5,250.20499999999998L595.7857142857142,36.77000000000001L597.0714285714286,257.18L598.3571428571429,265.55L599.6428571428571,271.13L600.9285714285714,250.20499999999998L602.2142857142857,254.39L603.5,261.365L604.7857142857142,257.18L606.0714285714286,259.97L607.3571428571429,269.735L608.6428571428571,266.945L609.9285714285714,259.97L611.2142857142857,233.465L612.5,261.365L613.7857142857142,257.18L615.0714285714286,265.55L616.3571428571429,271.13L617.6428571428571,272.525L618.9285714285714,220.91L620.2142857142857,257.18L621.5,239.04500000000002L622.7857142857142,257.18L624.0714285714286,244.625L625.3571428571429,268.34L626.6428571428571,273.92L627.9285714285714,257.18L629.2142857142857,251.6L630.5,243.23L631.7857142857142,246.01999999999998L633.0714285714286,188.825L634.3571428571429,272.525L635.6428571428571,261.365L636.9285714285714,251.6L638.2142857142857,237.65L639.5,273.92L640.7857142857142,240.44L642.0714285714286,251.6L643.3571428571429,273.92L644.6428571428571,268.34L645.9285714285714,262.76L647.2142857142857,246.01999999999998L648.5,264.155L649.7857142857142,233.465L651.0714285714286,259.97L652.3571428571429,272.525L653.6428571428571,269.735L654.9285714285714,254.39L656.2142857142857,246.01999999999998L657.5,262.76L658.7857142857142,232.07L660.0714285714286,265.55L661.3571428571429,276.71L662.6428571428571,271.13L663.9285714285714,232.07L665.2142857142857,184.64L666.5,234.86L667.7857142857142,252.995L669.0714285714286,257.18L670.3571428571429,273.92L671.6428571428571,269.735L672.9285714285714,227.885L674.2142857142857,243.23L675.5,259.97L676.7857142857142,247.415L678.0714285714286,262.76L679.3571428571429,269.735L680.6428571428571,272.525L681.9285714285714,262.76L683.2142857142857,250.20499999999998L684.5,234.86L685.7857142857142,254.39L687.0714285714286,254.39L688.3571428571429,272.525L689.6428571428571,278.105L690.9285714285714,259.97L692.2142857142857,252.995L693.5,255.785L694.7857142857142,250.20499999999998L696.0714285714286,254.39L697.3571428571429,266.945L698.6428571428571,271.13L699.9285714285714,251.6L701.2142857142857,258.575L702.5,255.785L703.7857142857142,243.23L705.0714285714286,251.6L706.3571428571428,273.92L707.6428571428571,275.315L708.9285714285714,262.76L710.2142857142857,259.97L711.5,261.365L712.7857142857142,251.6L714.0714285714286,252.995L715.3571428571428,278.105L716.6428571428571,275.315L717.9285714285714,261.365L719.2142857142857,258.575L720.5,252.995L721.7857142857142,259.97L723.0714285714286,261.365L724.3571428571428,266.945L725.6428571428571,269.735L726.9285714285714,272.525L728.2142857142857,262.76L729.5,247.415L730.7857142857142,262.76L732.0714285714286,258.575L733.3571428571428,278.105L734.6428571428571,271.13L735.9285714285714,251.6L737.2142857142857,248.81L738.5,248.81L739.7857142857142,258.575L741.0714285714286,258.575L742.3571428571428,275.315L743.6428571428571,266.945L744.9821428571428,244.625L746.2678571428571,244.625L747.5535714285714,250.20499999999998L748.8392857142857,248.81L750.125,255.785L751.4107142857142,261.365L752.6964285714286,266.945L753.9821428571428,252.995L755.2678571428571,264.155L756.5535714285714,259.97L757.8392857142857,254.39L759.125,255.785L760.4107142857142,259.97L761.6964285714286,271.13L762.9821428571428,237.65L764.2678571428571,251.6L765.5535714285714,265.55L766.8392857142857,254.39L768.125,255.785L769.4107142857142,266.945L770.6964285714286,269.735L771.9821428571428,243.23L773.2678571428571,230.675L774.5535714285714,247.415L775.8392857142857,252.995L777.125,261.365L778.4107142857142,258.575L779.6964285714286,271.13L780.9821428571428,225.095L782.2678571428571,236.255L783.5535714285714,233.465L784.8392857142857,246.01999999999998L786.125,264.155L787.4107142857142,268.34L788.6964285714286,269.735L789.9821428571428,261.365L791.2678571428571,252.995L792.5535714285714,257.18L793.8392857142857,254.39L795.125,259.97L796.4107142857142,268.34L797.6964285714286,275.315L798.9821428571428,269.735L800.2678571428571,259.97L801.5535714285714,251.6L802.8392857142857,247.415L804.125,271.13L805.4107142857142,271.13L806.6964285714286,250.20499999999998L807.9821428571428,259.97L809.2678571428571,268.34L810.5535714285714,259.97L811.8392857142857,262.76L813.125,268.34L814.4107142857142,276.71L815.6964285714286,276.71L816.9821428571428,266.945L818.2678571428571,272.525L819.5535714285714,272.525L820.8392857142857,275.315L822.125,271.13L823.4107142857142,278.105L824.6964285714286,279.5L825.9821428571428,275.315L827.2678571428571,269.735L828.5535714285714,273.92L829.8392857142857,259.97L831.125,268.34L832.4107142857142,272.525L833.6964285714286,271.13L834.9821428571428,259.97L836.2678571428571,266.945L837.5535714285714,269.735L838.8392857142857,265.55L840.125,255.785L841.4107142857142,269.735L842.6964285714286,273.92L843.9821428571428,259.97L845.2678571428571,265.55L846.5535714285714,261.365L847.8392857142857,259.97L849.125,269.735L850.4107142857142,276.71L851.6964285714286,271.13L852.9821428571428,264.155L854.2678571428571,259.97L855.5535714285714,265.55L856.8392857142857,268.34L858.125,269.735L859.4107142857142,272.525L860.6964285714286,271.13L861.9821428571428,259.97L863.2678571428571,262.76L864.5535714285714,257.18L865.8392857142857,262.76L867.125,259.97L868.4107142857142,275.315L869.6964285714286,272.525L870.9821428571428,259.97L872.2678571428571,258.575L873.5535714285714,268.34L874.8392857142857,262.76L876.125,266.945L877.4107142857142,276.71L878.6964285714286,272.525L879.9821428571428,252.995L881.2678571428571,257.18L882.5535714285714,234.86L883.8392857142857,261.365L885.125,257.18L886.4107142857142,269.735L887.6964285714286,275.315L888.9821428571428,262.76L890.2678571428571,252.995L891.5535714285714,243.23L892.8392857142857,241.835L894.125,248.81L895.4107142857142,275.315L896.6964285714286,268.34L897.9821428571428,261.365L899.2678571428571,259.97L900.5535714285714,250.20499999999998L901.8392857142857,244.625L903.125,250.20499999999998L904.4107142857142,269.735L905.6964285714286,273.92L906.9821428571428,243.23L908.2678571428571,248.81L909.5535714285714,241.835L910.8392857142857,244.625L912.125,246.01999999999998L913.4107142857142,254.39L914.6964285714286,264.155L915.9821428571428,241.835L917.2678571428571,262.76L918.5535714285714,244.625L919.8392857142857,241.835L921.125,244.625L922.4107142857142,262.76L923.6964285714286,268.34L924.9821428571428,243.23L926.2678571428571,262.76L927.5535714285714,251.6L928.8392857142857,198.59L930.125,236.255L931.4107142857142,266.945L932.6964285714286,271.13L933.9285714285714,240.44L935.2142857142857,252.995L936.5,236.255L937.7857142857142,247.415L939.0714285714286,244.625L940.3571428571428,268.34L941.6428571428571,273.92L942.9285714285714,246.01999999999998L944.2142857142857,258.575L945.5,258.575L946.7857142857142,259.97L948.0714285714286,259.97L949.3571428571428,276.71L950.6428571428571,272.525L951.9285714285714,247.415L953.2142857142857,257.18L954.5,254.39L955.7857142857142,244.625L957.0714285714286,268.34L958.3571428571428,272.525L959.6428571428571,273.92L960.9285714285714,264.155L962.2142857142857,246.01999999999998L963.5,246.01999999999998L964.7857142857142,250.20499999999998L966.0714285714286,261.365L967.3571428571428,272.525L968.6428571428571,67.46000000000001L969.9285714285714,255.785L971.2142857142857,250.20499999999998L972.5,240.44" stroke="#046b97" stroke-width="1" fill-opacity="1" fill="none"></path></g></g><g></g><g><g><text text-anchor="middle" x="117.5" y="293.85" font-family="Lato" font-size="12" stroke="none" stroke-width="0" fill="#444444">July 2015</text></g><g><text text-anchor="middle" x="235.78571428571428" y="293.85" font-family="Lato" font-size="12" stroke="none" stroke-width="0" fill="#444444">October 2015</text></g><g><text text-anchor="middle" x="354.125" y="293.85" font-family="Lato" font-size="12" stroke="none" stroke-width="0" fill="#444444">January 2016</text></g><g><text text-anchor="middle" x="471.07142857142856" y="293.85" font-family="Lato" font-size="12" stroke="none" stroke-width="0" fill="#444444">April 2016</text></g><g><text text-anchor="middle" x="588.0714285714286" y="293.85" font-family="Lato" font-size="12" stroke="none" stroke-width="0" fill="#444444">July 2016</text></g><g><text text-anchor="middle" x="706.3571428571428" y="293.85" font-family="Lato" font-size="12" stroke="none" stroke-width="0" fill="#444444">October 2016</text></g><g><text text-anchor="middle" x="824.6964285714286" y="293.85" font-family="Lato" font-size="12" stroke="none" stroke-width="0" fill="#444444">January 2017</text></g><g><text text-anchor="middle" x="940.3571428571428" y="293.85" font-family="Lato" font-size="12" stroke="none" stroke-width="0" fill="#444444">April 2017</text></g><g><g><text text-anchor="start" x="3" y="152.35" font-family="Lato" font-size="12" stroke="#ffffff" stroke-width="3" fill="#444444" aria-hidden="true">100</text><text text-anchor="start" x="3" y="152.35" font-family="Lato" font-size="12" stroke="none" stroke-width="0" fill="#444444">100</text></g></g><g><g><text text-anchor="start" x="3" y="12.85" font-family="Lato" font-size="12" stroke="#ffffff" stroke-width="3" fill="#444444" aria-hidden="true">200</text><text text-anchor="start" x="3" y="12.85" font-family="Lato" font-size="12" stroke="none" stroke-width="0" fill="#444444">200</text></g></g></g></g><g></g></svg>
