<svg width="937" height="160" aria-label="A chart." style="overflow: hidden;"><defs id="defs"><clipPath id="_ABSTRACT_RENDERER_ID_73"><rect x="7" y="4" width="910" height="136"></rect></clipPath></defs><rect x="0" y="0" width="937" height="160" stroke="none" stroke-width="0" fill="#ffffff"></rect><g><rect x="7" y="4" width="910" height="136" stroke="none" stroke-width="0" fill-opacity="0" fill="#ffffff"></rect><g clip-path="url(https://analytics.google.com/analytics/web/#_ABSTRACT_RENDERER_ID_73)"><g><rect x="7" y="4" width="1" height="136" stroke="none" stroke-width="0" fill="#ffffff"></rect><rect x="120" y="4" width="1" height="136" stroke="none" stroke-width="0" fill="#ffffff"></rect><rect x="235" y="4" width="1" height="136" stroke="none" stroke-width="0" fill="#ffffff"></rect><rect x="349" y="4" width="1" height="136" stroke="none" stroke-width="0" fill="#ffffff"></rect><rect x="462" y="4" width="1" height="136" stroke="none" stroke-width="0" fill="#ffffff"></rect><rect x="575" y="4" width="1" height="136" stroke="none" stroke-width="0" fill="#ffffff"></rect><rect x="690" y="4" width="1" height="136" stroke="none" stroke-width="0" fill="#ffffff"></rect><rect x="804" y="4" width="1" height="136" stroke="none" stroke-width="0" fill="#ffffff"></rect><rect x="916" y="4" width="1" height="136" stroke="none" stroke-width="0" fill="#ffffff"></rect><rect x="7" y="139" width="910" height="1" stroke="none" stroke-width="0" fill="#efefef"></rect><rect x="7" y="72" width="910" height="1" stroke="none" stroke-width="0" fill="#efefef"></rect><rect x="7" y="4" width="910" height="1" stroke="none" stroke-width="0" fill="#efefef"></rect><rect x="7" y="139" width="910" height="1" stroke="none" stroke-width="0" fill="#efefef"></rect><rect x="7" y="72" width="910" height="1" stroke="none" stroke-width="0" fill="#efefef"></rect><rect x="7" y="4" width="910" height="1" stroke="none" stroke-width="0" fill="#efefef"></rect></g><g><g><path d="M7.5,139.5L7.5,139.5L44.80506155950752,139.5L83.35362517099863,43.785L120.65868673050615,27.44999999999999L159.20725034199725,91.57499999999999L197.75581395348837,102.10499999999999L235.0608755129959,101.97L273.6612517099863,69.57L310.9663132694938,98.46L349.51487688098496,109.25999999999999L388.06344049247605,121.545L424.125,108.72L462.6217510259918,105.21000000000001L499.9268125854993,114.12L538.4753761969904,100.62L575.7804377564979,79.425L614.329001367989,84.285L652.8775649794801,104.94L690.1826265389876,109.125L728.7830027359781,98.055L766.0880642954857,111.825L804.6366279069767,115.60499999999999L843.1851915184678,107.1L878.0032489740082,85.63499999999999L916.5,83.88L916.5,139.5L916.5,139.5Z" stroke="none" stroke-width="0" fill-opacity="0.1" fill="#058dc7"></path></g><g><path d="M7.5,139.5L7.5,139.5L44.80506155950752,139.5L83.35362517099863,127.35L120.65868673050615,125.1L159.20725034199725,123.3L197.75581395348837,110.25L235.0608755129959,121.725L273.6612517099863,134.55L310.9663132694938,123.3L349.51487688098496,125.1L388.06344049247605,127.8L424.125,102.825L462.6217510259918,122.625L499.9268125854993,122.625L538.4753761969904,123.075L575.7804377564979,128.475L614.329001367989,125.1L652.8775649794801,116.55L690.1826265389876,122.4L728.7830027359781,113.85L766.0880642954857,117.675L804.6366279069767,117.45L843.1851915184678,120.825L878.0032489740082,120.15L916.5,125.325L916.5,139.5L916.5,139.5Z" stroke="none" stroke-width="0" fill-opacity="0" fill="#aadff3"></path></g><g><path d="M7.5,139.5L7.5,139.5L44.80506155950752,139.5L83.35362517099863,100.62L120.65868673050615,94.275L159.20725034199725,101.97L197.75581395348837,55.8L235.0608755129959,64.035L273.6612517099863,71.05499999999999L310.9663132694938,76.05L349.51487688098496,92.52L388.06344049247605,89.00999999999999L424.125,67.005L462.6217510259918,69.705L499.9268125854993,63.08999999999999L538.4753761969904,92.115L575.7804377564979,84.41999999999999L614.329001367989,94.14L652.8775649794801,94.005L690.1826265389876,106.425L728.7830027359781,68.22L766.0880642954857,113.715L804.6366279069767,119.25L843.1851915184678,110.07L878.0032489740082,78.47999999999999L916.5,113.58L916.5,139.5L916.5,139.5Z" stroke="none" stroke-width="0" fill-opacity="0" fill="#ed7e17"></path></g><g><path d="M7.5,139.5L7.5,139.5L44.80506155950752,139.5L83.35362517099863,12.150000000000006L120.65868673050615,48.375L159.20725034199725,40.72500000000001L197.75581395348837,41.175L235.0608755129959,48.825L273.6612517099863,78.075L310.9663132694938,36.45L349.51487688098496,86.85L388.06344049247605,75.6L424.125,57.150000000000006L462.6217510259918,62.55L499.9268125854993,80.1L538.4753761969904,80.1L575.7804377564979,70.2L614.329001367989,85.05000000000001L652.8775649794801,90.9L690.1826265389876,84.375L728.7830027359781,59.85000000000001L766.0880642954857,78.075L804.6366279069767,76.725L843.1851915184678,48.375L878.0032489740082,42.97500000000001L916.5,90.9L916.5,139.5L916.5,139.5Z" stroke="none" stroke-width="0" fill-opacity="0" fill="#f2d5bd"></path></g></g><g><rect x="7" y="139" width="910" height="1" stroke="none" stroke-width="0" fill="#333333"></rect><rect x="7" y="139" width="910" height="1" stroke="none" stroke-width="0" fill="#333333"></rect></g><g><path d="M7.5,139.5L44.80506155950752,139.5L83.35362517099863,43.785L120.65868673050615,27.44999999999999L159.20725034199725,91.57499999999999L197.75581395348837,102.10499999999999L235.0608755129959,101.97L273.6612517099863,69.57L310.9663132694938,98.46L349.51487688098496,109.25999999999999L388.06344049247605,121.545L424.125,108.72L462.6217510259918,105.21000000000001L499.9268125854993,114.12L538.4753761969904,100.62L575.7804377564979,79.425L614.329001367989,84.285L652.8775649794801,104.94L690.1826265389876,109.125L728.7830027359781,98.055L766.0880642954857,111.825L804.6366279069767,115.60499999999999L843.1851915184678,107.1L878.0032489740082,85.63499999999999L916.5,83.88" stroke="#058dc7" stroke-width="4" fill-opacity="1" fill="none"></path><path d="M7.5,139.5L44.80506155950752,139.5L83.35362517099863,127.35L120.65868673050615,125.1L159.20725034199725,123.3L197.75581395348837,110.25L235.0608755129959,121.725L273.6612517099863,134.55L310.9663132694938,123.3L349.51487688098496,125.1L388.06344049247605,127.8L424.125,102.825L462.6217510259918,122.625L499.9268125854993,122.625L538.4753761969904,123.075L575.7804377564979,128.475L614.329001367989,125.1L652.8775649794801,116.55L690.1826265389876,122.4L728.7830027359781,113.85L766.0880642954857,117.675L804.6366279069767,117.45L843.1851915184678,120.825L878.0032489740082,120.15L916.5,125.325" stroke="#aadff3" stroke-width="4" fill-opacity="1" fill="none"></path><path d="M7.5,139.5L44.80506155950752,139.5L83.35362517099863,100.62L120.65868673050615,94.275L159.20725034199725,101.97L197.75581395348837,55.8L235.0608755129959,64.035L273.6612517099863,71.05499999999999L310.9663132694938,76.05L349.51487688098496,92.52L388.06344049247605,89.00999999999999L424.125,67.005L462.6217510259918,69.705L499.9268125854993,63.08999999999999L538.4753761969904,92.115L575.7804377564979,84.41999999999999L614.329001367989,94.14L652.8775649794801,94.005L690.1826265389876,106.425L728.7830027359781,68.22L766.0880642954857,113.715L804.6366279069767,119.25L843.1851915184678,110.07L878.0032489740082,78.47999999999999L916.5,113.58" stroke="#ed7e17" stroke-width="4" fill-opacity="1" fill="none"></path><path d="M7.5,139.5L44.80506155950752,139.5L83.35362517099863,12.150000000000006L120.65868673050615,48.375L159.20725034199725,40.72500000000001L197.75581395348837,41.175L235.0608755129959,48.825L273.6612517099863,78.075L310.9663132694938,36.45L349.51487688098496,86.85L388.06344049247605,75.6L424.125,57.150000000000006L462.6217510259918,62.55L499.9268125854993,80.1L538.4753761969904,80.1L575.7804377564979,70.2L614.329001367989,85.05000000000001L652.8775649794801,90.9L690.1826265389876,84.375L728.7830027359781,59.85000000000001L766.0880642954857,78.075L804.6366279069767,76.725L843.1851915184678,48.375L878.0032489740082,42.97500000000001L916.5,90.9" stroke="#f2d5bd" stroke-width="4" fill-opacity="1" fill="none"></path></g></g><g><circle cx="7.5" cy="139.5" r="4.5" stroke="none" stroke-width="0" fill="#058dc7"></circle><circle cx="44.80506155950752" cy="139.5" r="4.5" stroke="none" stroke-width="0" fill="#058dc7"></circle><circle cx="83.35362517099863" cy="43.785" r="4.5" stroke="none" stroke-width="0" fill="#058dc7"></circle><circle cx="120.65868673050615" cy="27.44999999999999" r="4.5" stroke="none" stroke-width="0" fill="#058dc7"></circle><circle cx="159.20725034199725" cy="91.57499999999999" r="4.5" stroke="none" stroke-width="0" fill="#058dc7"></circle><circle cx="197.75581395348837" cy="102.10499999999999" r="4.5" stroke="none" stroke-width="0" fill="#058dc7"></circle><circle cx="235.0608755129959" cy="101.97" r="4.5" stroke="none" stroke-width="0" fill="#058dc7"></circle><circle cx="273.6612517099863" cy="69.57" r="4.5" stroke="none" stroke-width="0" fill="#058dc7"></circle><circle cx="310.9663132694938" cy="98.46" r="4.5" stroke="none" stroke-width="0" fill="#058dc7"></circle><circle cx="349.51487688098496" cy="109.25999999999999" r="4.5" stroke="none" stroke-width="0" fill="#058dc7"></circle><circle cx="388.06344049247605" cy="121.545" r="4.5" stroke="none" stroke-width="0" fill="#058dc7"></circle><circle cx="424.125" cy="108.72" r="4.5" stroke="none" stroke-width="0" fill="#058dc7"></circle><circle cx="462.6217510259918" cy="105.21000000000001" r="4.5" stroke="none" stroke-width="0" fill="#058dc7"></circle><circle cx="499.9268125854993" cy="114.12" r="4.5" stroke="none" stroke-width="0" fill="#058dc7"></circle><circle cx="538.4753761969904" cy="100.62" r="4.5" stroke="none" stroke-width="0" fill="#058dc7"></circle><circle cx="575.7804377564979" cy="79.425" r="4.5" stroke="none" stroke-width="0" fill="#058dc7"></circle><circle cx="614.329001367989" cy="84.285" r="4.5" stroke="none" stroke-width="0" fill="#058dc7"></circle><circle cx="652.8775649794801" cy="104.94" r="4.5" stroke="none" stroke-width="0" fill="#058dc7"></circle><circle cx="690.1826265389876" cy="109.125" r="4.5" stroke="none" stroke-width="0" fill="#058dc7"></circle><circle cx="728.7830027359781" cy="98.055" r="4.5" stroke="none" stroke-width="0" fill="#058dc7"></circle><circle cx="766.0880642954857" cy="111.825" r="4.5" stroke="none" stroke-width="0" fill="#058dc7"></circle><circle cx="804.6366279069767" cy="115.60499999999999" r="4.5" stroke="none" stroke-width="0" fill="#058dc7"></circle><circle cx="843.1851915184678" cy="107.1" r="4.5" stroke="none" stroke-width="0" fill="#058dc7"></circle><circle cx="878.0032489740082" cy="85.63499999999999" r="4.5" stroke="none" stroke-width="0" fill="#058dc7"></circle><circle cx="916.5" cy="83.88" r="4.5" stroke="none" stroke-width="0" fill="#058dc7"></circle><circle cx="7.5" cy="139.5" r="4.5" stroke="none" stroke-width="0" fill="#aadff3"></circle><circle cx="44.80506155950752" cy="139.5" r="4.5" stroke="none" stroke-width="0" fill="#aadff3"></circle><circle cx="83.35362517099863" cy="127.35" r="4.5" stroke="none" stroke-width="0" fill="#aadff3"></circle><circle cx="120.65868673050615" cy="125.1" r="4.5" stroke="none" stroke-width="0" fill="#aadff3"></circle><circle cx="159.20725034199725" cy="123.3" r="4.5" stroke="none" stroke-width="0" fill="#aadff3"></circle><circle cx="197.75581395348837" cy="110.25" r="4.5" stroke="none" stroke-width="0" fill="#aadff3"></circle><circle cx="235.0608755129959" cy="121.725" r="4.5" stroke="none" stroke-width="0" fill="#aadff3"></circle><circle cx="273.6612517099863" cy="134.55" r="4.5" stroke="none" stroke-width="0" fill="#aadff3"></circle><circle cx="310.9663132694938" cy="123.3" r="4.5" stroke="none" stroke-width="0" fill="#aadff3"></circle><circle cx="349.51487688098496" cy="125.1" r="4.5" stroke="none" stroke-width="0" fill="#aadff3"></circle><circle cx="388.06344049247605" cy="127.8" r="4.5" stroke="none" stroke-width="0" fill="#aadff3"></circle><circle cx="424.125" cy="102.825" r="4.5" stroke="none" stroke-width="0" fill="#aadff3"></circle><circle cx="462.6217510259918" cy="122.625" r="4.5" stroke="none" stroke-width="0" fill="#aadff3"></circle><circle cx="499.9268125854993" cy="122.625" r="4.5" stroke="none" stroke-width="0" fill="#aadff3"></circle><circle cx="538.4753761969904" cy="123.075" r="4.5" stroke="none" stroke-width="0" fill="#aadff3"></circle><circle cx="575.7804377564979" cy="128.475" r="4.5" stroke="none" stroke-width="0" fill="#aadff3"></circle><circle cx="614.329001367989" cy="125.1" r="4.5" stroke="none" stroke-width="0" fill="#aadff3"></circle><circle cx="652.8775649794801" cy="116.55" r="4.5" stroke="none" stroke-width="0" fill="#aadff3"></circle><circle cx="690.1826265389876" cy="122.4" r="4.5" stroke="none" stroke-width="0" fill="#aadff3"></circle><circle cx="728.7830027359781" cy="113.85" r="4.5" stroke="none" stroke-width="0" fill="#aadff3"></circle><circle cx="766.0880642954857" cy="117.675" r="4.5" stroke="none" stroke-width="0" fill="#aadff3"></circle><circle cx="804.6366279069767" cy="117.45" r="4.5" stroke="none" stroke-width="0" fill="#aadff3"></circle><circle cx="843.1851915184678" cy="120.825" r="4.5" stroke="none" stroke-width="0" fill="#aadff3"></circle><circle cx="878.0032489740082" cy="120.15" r="4.5" stroke="none" stroke-width="0" fill="#aadff3"></circle><circle cx="916.5" cy="125.325" r="4.5" stroke="none" stroke-width="0" fill="#aadff3"></circle><circle cx="7.5" cy="139.5" r="4.5" stroke="none" stroke-width="0" fill="#ed7e17"></circle><circle cx="44.80506155950752" cy="139.5" r="4.5" stroke="none" stroke-width="0" fill="#ed7e17"></circle><circle cx="83.35362517099863" cy="100.62" r="4.5" stroke="none" stroke-width="0" fill="#ed7e17"></circle><circle cx="120.65868673050615" cy="94.275" r="4.5" stroke="none" stroke-width="0" fill="#ed7e17"></circle><circle cx="159.20725034199725" cy="101.97" r="4.5" stroke="none" stroke-width="0" fill="#ed7e17"></circle><circle cx="197.75581395348837" cy="55.8" r="4.5" stroke="none" stroke-width="0" fill="#ed7e17"></circle><circle cx="235.0608755129959" cy="64.035" r="4.5" stroke="none" stroke-width="0" fill="#ed7e17"></circle><circle cx="273.6612517099863" cy="71.05499999999999" r="4.5" stroke="none" stroke-width="0" fill="#ed7e17"></circle><circle cx="310.9663132694938" cy="76.05" r="4.5" stroke="none" stroke-width="0" fill="#ed7e17"></circle><circle cx="349.51487688098496" cy="92.52" r="4.5" stroke="none" stroke-width="0" fill="#ed7e17"></circle><circle cx="388.06344049247605" cy="89.00999999999999" r="4.5" stroke="none" stroke-width="0" fill="#ed7e17"></circle><circle cx="424.125" cy="67.005" r="4.5" stroke="none" stroke-width="0" fill="#ed7e17"></circle><circle cx="462.6217510259918" cy="69.705" r="4.5" stroke="none" stroke-width="0" fill="#ed7e17"></circle><circle cx="499.9268125854993" cy="63.08999999999999" r="4.5" stroke="none" stroke-width="0" fill="#ed7e17"></circle><circle cx="538.4753761969904" cy="92.115" r="4.5" stroke="none" stroke-width="0" fill="#ed7e17"></circle><circle cx="575.7804377564979" cy="84.41999999999999" r="4.5" stroke="none" stroke-width="0" fill="#ed7e17"></circle><circle cx="614.329001367989" cy="94.14" r="4.5" stroke="none" stroke-width="0" fill="#ed7e17"></circle><circle cx="652.8775649794801" cy="94.005" r="4.5" stroke="none" stroke-width="0" fill="#ed7e17"></circle><circle cx="690.1826265389876" cy="106.425" r="4.5" stroke="none" stroke-width="0" fill="#ed7e17"></circle><circle cx="728.7830027359781" cy="68.22" r="4.5" stroke="none" stroke-width="0" fill="#ed7e17"></circle><circle cx="766.0880642954857" cy="113.715" r="4.5" stroke="none" stroke-width="0" fill="#ed7e17"></circle><circle cx="804.6366279069767" cy="119.25" r="4.5" stroke="none" stroke-width="0" fill="#ed7e17"></circle><circle cx="843.1851915184678" cy="110.07" r="4.5" stroke="none" stroke-width="0" fill="#ed7e17"></circle><circle cx="878.0032489740082" cy="78.47999999999999" r="4.5" stroke="none" stroke-width="0" fill="#ed7e17"></circle><circle cx="916.5" cy="113.58" r="4.5" stroke="none" stroke-width="0" fill="#ed7e17"></circle><circle cx="7.5" cy="139.5" r="4.5" stroke="none" stroke-width="0" fill="#f2d5bd"></circle><circle cx="44.80506155950752" cy="139.5" r="4.5" stroke="none" stroke-width="0" fill="#f2d5bd"></circle><circle cx="83.35362517099863" cy="12.150000000000006" r="4.5" stroke="none" stroke-width="0" fill="#f2d5bd"></circle><circle cx="120.65868673050615" cy="48.375" r="4.5" stroke="none" stroke-width="0" fill="#f2d5bd"></circle><circle cx="159.20725034199725" cy="40.72500000000001" r="4.5" stroke="none" stroke-width="0" fill="#f2d5bd"></circle><circle cx="197.75581395348837" cy="41.175" r="4.5" stroke="none" stroke-width="0" fill="#f2d5bd"></circle><circle cx="235.0608755129959" cy="48.825" r="4.5" stroke="none" stroke-width="0" fill="#f2d5bd"></circle><circle cx="273.6612517099863" cy="78.075" r="4.5" stroke="none" stroke-width="0" fill="#f2d5bd"></circle><circle cx="310.9663132694938" cy="36.45" r="4.5" stroke="none" stroke-width="0" fill="#f2d5bd"></circle><circle cx="349.51487688098496" cy="86.85" r="4.5" stroke="none" stroke-width="0" fill="#f2d5bd"></circle><circle cx="388.06344049247605" cy="75.6" r="4.5" stroke="none" stroke-width="0" fill="#f2d5bd"></circle><circle cx="424.125" cy="57.150000000000006" r="4.5" stroke="none" stroke-width="0" fill="#f2d5bd"></circle><circle cx="462.6217510259918" cy="62.55" r="4.5" stroke="none" stroke-width="0" fill="#f2d5bd"></circle><circle cx="499.9268125854993" cy="80.1" r="4.5" stroke="none" stroke-width="0" fill="#f2d5bd"></circle><circle cx="538.4753761969904" cy="80.1" r="4.5" stroke="none" stroke-width="0" fill="#f2d5bd"></circle><circle cx="575.7804377564979" cy="70.2" r="4.5" stroke="none" stroke-width="0" fill="#f2d5bd"></circle><circle cx="614.329001367989" cy="85.05000000000001" r="4.5" stroke="none" stroke-width="0" fill="#f2d5bd"></circle><circle cx="652.8775649794801" cy="90.9" r="4.5" stroke="none" stroke-width="0" fill="#f2d5bd"></circle><circle cx="690.1826265389876" cy="84.375" r="4.5" stroke="none" stroke-width="0" fill="#f2d5bd"></circle><circle cx="728.7830027359781" cy="59.85000000000001" r="4.5" stroke="none" stroke-width="0" fill="#f2d5bd"></circle><circle cx="766.0880642954857" cy="78.075" r="4.5" stroke="none" stroke-width="0" fill="#f2d5bd"></circle><circle cx="804.6366279069767" cy="76.725" r="4.5" stroke="none" stroke-width="0" fill="#f2d5bd"></circle><circle cx="843.1851915184678" cy="48.375" r="4.5" stroke="none" stroke-width="0" fill="#f2d5bd"></circle><circle cx="878.0032489740082" cy="42.97500000000001" r="4.5" stroke="none" stroke-width="0" fill="#f2d5bd"></circle><circle cx="916.5" cy="90.9" r="4.5" stroke="none" stroke-width="0" fill="#f2d5bd"></circle></g><g><g><text text-anchor="middle" x="7.5" y="153.85" font-family="Arial" font-size="11" stroke="none" stroke-width="0" fill="#444444">…</text><rect x="1.5" y="144.5" width="12" height="11" stroke="none" stroke-width="0" fill-opacity="0" fill="#ffffff"></rect></g><g><text text-anchor="middle" x="120.65868673050615" y="153.85" font-family="Arial" font-size="11" stroke="none" stroke-width="0" fill="#444444">July 2015</text></g><g><text text-anchor="middle" x="235.0608755129959" y="153.85" font-family="Arial" font-size="11" stroke="none" stroke-width="0" fill="#444444">October 2015</text></g><g><text text-anchor="middle" x="349.51487688098496" y="153.85" font-family="Arial" font-size="11" stroke="none" stroke-width="0" fill="#444444">January 2016</text></g><g><text text-anchor="middle" x="462.6217510259918" y="153.85" font-family="Arial" font-size="11" stroke="none" stroke-width="0" fill="#444444">April 2016</text></g><g><text text-anchor="middle" x="575.7804377564979" y="153.85" font-family="Arial" font-size="11" stroke="none" stroke-width="0" fill="#444444">July 2016</text></g><g><text text-anchor="middle" x="690.1826265389876" y="153.85" font-family="Arial" font-size="11" stroke="none" stroke-width="0" fill="#444444">October 2016</text></g><g><text text-anchor="middle" x="804.6366279069767" y="153.85" font-family="Arial" font-size="11" stroke="none" stroke-width="0" fill="#444444">January 2017</text></g><g><text text-anchor="middle" x="916.5" y="153.85" font-family="Arial" font-size="11" stroke="none" stroke-width="0" fill="#444444">April…</text><rect x="898.5" y="144.5" width="36" height="11" stroke="none" stroke-width="0" fill-opacity="0" fill="#ffffff"></rect></g><g><g><text text-anchor="start" x="10" y="84.35" font-family="Arial" font-size="11" stroke="#ffffff" stroke-width="3" fill="#444444" aria-hidden="true">500</text><text text-anchor="start" x="10" y="84.35" font-family="Arial" font-size="11" stroke="none" stroke-width="0" fill="#444444">500</text></g></g><g><g><text text-anchor="start" x="10" y="16.85" font-family="Arial" font-size="11" stroke="#ffffff" stroke-width="3" fill="#444444" aria-hidden="true">1,000</text><text text-anchor="start" x="10" y="16.85" font-family="Arial" font-size="11" stroke="none" stroke-width="0" fill="#444444">1,000</text></g></g><g><g><text text-anchor="end" x="914" y="84.35" font-family="Arial" font-size="11" font-weight="bold" stroke="#ffffff" stroke-width="3" fill="#444444" aria-hidden="true">5m</text><text text-anchor="end" x="914" y="84.35" font-family="Arial" font-size="11" font-weight="bold" stroke="none" stroke-width="0" fill="#444444">5m</text></g></g><g><g><text text-anchor="end" x="914" y="16.85" font-family="Arial" font-size="11" font-weight="bold" stroke="#ffffff" stroke-width="3" fill="#444444" aria-hidden="true">10m</text><text text-anchor="end" x="914" y="16.85" font-family="Arial" font-size="11" font-weight="bold" stroke="none" stroke-width="0" fill="#444444">10m</text></g></g></g></g><g></g></svg>
